<svg width="36" height="32" viewBox="0 0 36 32" fill="none" xmlns="http://www.w3.org/2000/svg">
<g clip-path="url(#clip0_165_249)">
<path d="M0.556641 0.0245968V2.48424H5.89029C6.17084 2.48786 6.44302 2.57301 6.66806 2.72758C6.8931 2.88214 7.05954 3.09824 7.14369 3.34512L9.62384 23.834C9.75207 24.7254 10.2244 25.5444 10.9542 26.1407C11.684 26.7371 12.6224 27.0708 13.5974 27.0807H29.8917V24.6211H13.5974C13.2744 24.6173 12.9639 24.5054 12.7236 24.3064C12.4832 24.1073 12.3294 23.8346 12.2907 23.5388L12.1307 22.1614H29.0383C29.9592 22.157 30.8506 21.8616 31.5639 21.3245C32.2773 20.7874 32.7695 20.0411 32.9585 19.2098L35.6254 7.40354H10.3172L9.75718 2.70561C9.51842 1.93062 9.01118 1.24901 8.31293 0.764892C7.61468 0.280778 6.76381 0.0207746 5.89029 0.0245968H0.556641ZM27.2249 27.0807C26.6974 27.0807 26.1818 27.225 25.7433 27.4952C25.3047 27.7655 24.9629 28.1496 24.761 28.5991C24.5592 29.0485 24.5064 29.5431 24.6093 30.0202C24.7122 30.4973 24.9662 30.9356 25.3391 31.2796C25.7121 31.6236 26.1873 31.8578 26.7046 31.9527C27.2219 32.0476 27.7581 31.9989 28.2454 31.8128C28.7327 31.6266 29.1492 31.3113 29.4422 30.9069C29.7353 30.5024 29.8917 30.0268 29.8917 29.5404C29.8917 28.888 29.6107 28.2624 29.1106 27.8011C28.6105 27.3398 27.9321 27.0807 27.2249 27.0807ZM13.8908 27.0807C13.3633 27.0807 12.8477 27.225 12.4091 27.4952C11.9706 27.7655 11.6288 28.1496 11.4269 28.5991C11.2251 29.0485 11.1723 29.5431 11.2752 30.0202C11.3781 30.4973 11.6321 30.9356 12.005 31.2796C12.378 31.6236 12.8532 31.8578 13.3705 31.9527C13.8878 32.0476 14.424 31.9989 14.9113 31.8128C15.3986 31.6266 15.8151 31.3113 16.1081 30.9069C16.4012 30.5024 16.5576 30.0268 16.5576 29.5404C16.5576 28.888 16.2766 28.2624 15.7765 27.8011C15.2764 27.3398 14.598 27.0807 13.8908 27.0807ZM10.6106 9.86318H32.2652L30.345 18.7179C30.2884 18.9979 30.1261 19.2503 29.8869 19.4304C29.6477 19.6105 29.347 19.7066 29.0383 19.7018H11.8106L10.6106 9.86318Z" fill="black"/>
</g>
<defs>
<clipPath id="clip0_165_249">
<rect width="34.962" height="32" fill="white" transform="translate(0.556641)"/>
</clipPath>
</defs>
</svg>
