<svg width="100" height="100" viewBox="0 0 100 100" fill="none" xmlns="http://www.w3.org/2000/svg">
<g clip-path="url(#clip0_441_1972)">
<mask id="mask0_441_1972" style="mask-type:luminance" maskUnits="userSpaceOnUse" x="0" y="0" width="100" height="100">
<path d="M100 0H0V100H100V0Z" fill="white"/>
</mask>
<g mask="url(#mask0_441_1972)">
<path d="M50 100C77.6142 100 100 77.6142 100 50C100 22.3858 77.6142 0 50 0C22.3858 0 0 22.3858 0 50C0 77.6142 22.3858 100 50 100Z" fill="black"/>
<path fill-rule="evenodd" clip-rule="evenodd" d="M20.3125 33.6086V66.4062L30.1667 66.347V53.0428C31.3386 53.0428 32.44 53.0898 33.4452 53.7917C34.2103 54.4976 34.8184 55.3648 35.2281 56.3344L40.5003 66.347H51.5625C49.3683 61.9804 47.6103 56.4573 43.8363 53.1412C43.0398 52.617 42.1748 52.2122 41.2672 51.939C42.4802 51.6842 43.6495 51.2458 44.7373 50.6381C47.4773 48.9648 49.0492 45.9075 48.9744 42.7147C49.0309 40.8325 48.5148 38.979 47.4981 37.4126C45.1962 33.8879 40.5214 33.4708 36.6661 33.6086H20.3125ZM34.3655 46.8931H30.2052V40.1523H34.538C36.6886 39.9365 39.3459 40.899 39.1967 43.4439C39.2967 46.1908 36.5073 46.7386 34.3655 46.8931Z" fill="#FFB749"/>
<path d="M61.6825 54.8266L51.5625 55.4166C51.7597 58.3861 53.1283 61.1875 55.4119 63.295C57.6745 65.363 61.7306 66.3971 67.5805 66.3971C72.4319 66.5349 77.9778 65.3353 80.9703 61.1827C82.1764 59.521 82.8177 57.5667 82.8122 55.5688C82.8464 51.8513 80.3655 48.7964 77.0381 47.3667C73.8488 46.0572 70.4997 45.1053 67.0631 44.5313C65.798 44.3907 64.5823 43.9942 63.5036 43.3703C62.3498 42.5933 62.6219 40.98 63.6484 40.2494C66.5756 38.3136 71.2967 39.9289 71.6575 43.5988L81.6945 43.0658C81.5161 40.2625 79.9756 37.5852 77.5556 35.8724C74.5292 34.2011 71.0206 33.4178 67.4978 33.6269C64.6083 33.5199 61.7245 33.9403 59.0128 34.8638C55.6378 36.1133 52.8578 39.1625 52.8663 42.8946C52.8017 45.2152 53.9309 47.5138 55.8672 49.0033C58.8209 50.9747 62.2383 52.2785 65.8422 52.8094C67.7864 53.0683 69.6448 53.718 71.285 54.7124C72.7934 55.8296 72.7823 58.0735 71.2436 59.2036C69.5434 60.3957 67.0366 60.5338 65.1278 59.7607C63.0808 58.9313 61.8825 56.9975 61.6825 54.8266Z" fill="#FFB749"/>
</g>
</g>
<defs>
<clipPath id="clip0_441_1972">
<rect width="100" height="100" fill="white"/>
</clipPath>
</defs>
</svg>
